<svg xmlns="http://www.w3.org/2000/svg" xmlns:xlink="http://www.w3.org/1999/xlink" width="1080" zoomAndPan="magnify" viewBox="0 0 810 809.999993" height="1080" preserveAspectRatio="xMidYMid meet" version="1.0"><defs><clipPath id="4aee4dd4e2"><path d="M 28 28 L 782 28 L 782 782 L 28 782 Z M 28 28 " clip-rule="nonzero"/></clipPath><clipPath id="f0b8b858b5"><path d="M 631.449219 28.859375 L 632.101562 28.953125 L 632.738281 29.074219 L 633.359375 29.246094 L 633.964844 29.449219 L 634.554688 29.679688 L 635.128906 29.945312 L 635.6875 30.238281 L 636.230469 30.550781 L 636.757812 30.90625 L 637.253906 31.292969 L 637.71875 31.699219 L 638.183594 32.117188 L 638.601562 32.582031 L 639.023438 33.046875 L 639.394531 33.558594 L 639.75 34.070312 L 640.0625 34.613281 L 640.355469 35.171875 L 640.621094 35.746094 L 640.851562 36.351562 L 641.054688 36.957031 L 641.226562 37.578125 L 641.347656 38.214844 L 641.441406 38.867188 L 641.503906 39.53125 L 641.519531 40.199219 L 641.519531 104.882812 L 694.222656 104.882812 L 694.691406 104.898438 L 695.15625 104.914062 L 695.621094 104.960938 L 696.519531 105.117188 L 696.96875 105.207031 L 697.40625 105.332031 L 697.824219 105.457031 L 698.242188 105.613281 L 698.660156 105.78125 L 699.066406 105.953125 L 699.46875 106.15625 L 699.855469 106.371094 L 700.230469 106.589844 L 700.601562 106.835938 L 700.957031 107.085938 L 701.316406 107.351562 L 701.640625 107.628906 L 701.964844 107.921875 L 702.292969 108.21875 L 702.585938 108.542969 L 702.882812 108.871094 L 703.160156 109.195312 L 703.425781 109.554688 L 703.671875 109.910156 L 703.921875 110.28125 L 704.136719 110.65625 L 704.355469 111.042969 L 704.558594 111.445312 L 704.726562 111.847656 L 704.898438 112.269531 L 705.054688 112.6875 L 705.179688 113.105469 L 705.300781 113.539062 L 705.394531 113.988281 L 705.472656 114.441406 L 705.550781 114.890625 L 705.597656 115.355469 L 705.628906 116.285156 L 705.628906 168.992188 L 770.308594 168.992188 L 770.976562 169.007812 L 771.644531 169.070312 L 772.296875 169.160156 L 772.933594 169.285156 L 773.554688 169.457031 L 774.15625 169.660156 L 774.761719 169.890625 L 775.335938 170.15625 L 775.894531 170.449219 L 776.4375 170.761719 L 776.949219 171.117188 L 777.460938 171.488281 L 777.929688 171.90625 L 778.394531 172.328125 L 778.8125 172.792969 L 779.214844 173.257812 L 779.605469 173.753906 L 779.960938 174.28125 L 780.269531 174.824219 L 780.566406 175.382812 L 780.828125 175.957031 L 781.0625 176.546875 L 781.265625 177.152344 L 781.433594 177.773438 L 781.558594 178.410156 L 781.652344 179.058594 L 781.714844 179.726562 L 781.730469 180.394531 L 781.714844 181.0625 L 781.652344 181.730469 L 781.558594 182.378906 L 781.433594 183.015625 L 781.265625 183.636719 L 781.0625 184.242188 L 780.828125 184.832031 L 780.566406 185.40625 L 780.269531 185.980469 L 779.960938 186.507812 L 779.605469 187.035156 L 779.214844 187.53125 L 778.8125 188.011719 L 778.394531 188.460938 L 777.929688 188.898438 L 777.460938 189.300781 L 776.949219 189.6875 L 776.4375 190.03125 L 775.894531 190.355469 L 775.335938 190.648438 L 774.761719 190.914062 L 774.15625 191.148438 L 773.554688 191.347656 L 772.933594 191.519531 L 772.296875 191.644531 L 771.644531 191.734375 L 770.976562 191.796875 L 770.308594 191.8125 L 705.628906 191.8125 L 705.628906 233.222656 L 770.308594 233.222656 L 770.976562 233.238281 L 771.644531 233.300781 L 772.296875 233.394531 L 772.933594 233.519531 L 773.554688 233.6875 L 774.15625 233.890625 L 774.761719 234.125 L 775.335938 234.386719 L 775.894531 234.683594 L 776.4375 234.992188 L 776.949219 235.347656 L 777.460938 235.722656 L 777.929688 236.140625 L 778.394531 236.558594 L 778.8125 237.023438 L 779.214844 237.492188 L 779.605469 237.988281 L 779.960938 238.515625 L 780.269531 239.058594 L 780.566406 239.617188 L 780.828125 240.191406 L 781.0625 240.78125 L 781.265625 241.382812 L 781.433594 242.003906 L 781.558594 242.640625 L 781.652344 243.292969 L 781.714844 243.960938 L 781.730469 244.628906 L 781.714844 245.292969 L 781.652344 245.960938 L 781.558594 246.613281 L 781.433594 247.25 L 781.265625 247.871094 L 781.0625 248.476562 L 780.828125 249.066406 L 780.566406 249.640625 L 780.269531 250.195312 L 779.960938 250.742188 L 779.605469 251.269531 L 779.214844 251.765625 L 778.8125 252.230469 L 778.394531 252.695312 L 777.929688 253.113281 L 777.460938 253.53125 L 776.949219 253.90625 L 776.4375 254.261719 L 775.894531 254.574219 L 775.335938 254.867188 L 774.761719 255.132812 L 774.15625 255.363281 L 773.554688 255.566406 L 772.933594 255.734375 L 772.296875 255.859375 L 771.644531 255.953125 L 770.976562 256.015625 L 770.308594 256.03125 L 705.628906 256.03125 L 705.628906 297.441406 L 770.308594 297.441406 L 770.976562 297.457031 L 771.644531 297.519531 L 772.296875 297.613281 L 772.933594 297.734375 L 773.554688 297.90625 L 774.15625 298.109375 L 774.761719 298.339844 L 775.335938 298.605469 L 775.894531 298.898438 L 776.4375 299.226562 L 776.949219 299.566406 L 777.460938 299.953125 L 777.929688 300.359375 L 778.394531 300.792969 L 778.8125 301.242188 L 779.214844 301.722656 L 779.605469 302.21875 L 779.960938 302.746094 L 780.269531 303.273438 L 780.566406 303.847656 L 780.828125 304.421875 L 781.0625 305.011719 L 781.265625 305.617188 L 781.433594 306.238281 L 781.558594 306.875 L 781.652344 307.527344 L 781.714844 308.191406 L 781.730469 308.859375 L 781.714844 309.527344 L 781.652344 310.195312 L 781.558594 310.847656 L 781.433594 311.480469 L 781.265625 312.101562 L 781.0625 312.707031 L 780.828125 313.296875 L 780.566406 313.871094 L 780.269531 314.429688 L 779.960938 314.972656 L 779.605469 315.5 L 779.214844 315.996094 L 778.8125 316.460938 L 778.394531 316.929688 L 777.929688 317.347656 L 777.460938 317.765625 L 776.949219 318.136719 L 776.4375 318.496094 L 775.894531 318.804688 L 775.335938 319.101562 L 774.761719 319.363281 L 774.15625 319.597656 L 773.554688 319.796875 L 772.933594 319.96875 L 772.296875 320.09375 L 771.644531 320.1875 L 770.976562 320.246094 L 770.308594 320.261719 L 705.628906 320.261719 L 705.628906 361.671875 L 770.308594 361.671875 L 770.976562 361.6875 L 771.644531 361.75 L 772.296875 361.84375 L 772.933594 361.96875 L 773.554688 362.140625 L 774.15625 362.339844 L 774.761719 362.574219 L 775.335938 362.835938 L 775.894531 363.132812 L 776.4375 363.441406 L 776.949219 363.800781 L 777.460938 364.171875 L 777.929688 364.589844 L 778.394531 365.007812 L 778.8125 365.472656 L 779.214844 365.941406 L 779.605469 366.4375 L 779.960938 366.964844 L 780.269531 367.507812 L 780.566406 368.066406 L 780.828125 368.640625 L 781.0625 369.230469 L 781.265625 369.835938 L 781.433594 370.453125 L 781.558594 371.089844 L 781.652344 371.742188 L 781.714844 372.410156 L 781.730469 373.078125 L 781.714844 373.742188 L 781.652344 374.410156 L 781.558594 375.0625 L 781.433594 375.699219 L 781.265625 376.320312 L 781.0625 376.925781 L 780.828125 377.53125 L 780.566406 378.105469 L 780.269531 378.664062 L 779.960938 379.207031 L 779.605469 379.71875 L 779.214844 380.230469 L 778.8125 380.695312 L 778.394531 381.160156 L 777.929688 381.578125 L 777.460938 381.984375 L 776.949219 382.371094 L 776.4375 382.726562 L 775.894531 383.039062 L 775.335938 383.332031 L 774.761719 383.597656 L 774.15625 383.828125 L 773.554688 384.03125 L 772.933594 384.203125 L 772.296875 384.324219 L 771.644531 384.417969 L 770.976562 384.480469 L 770.308594 384.496094 L 705.628906 384.496094 L 705.628906 426.015625 L 770.308594 426.015625 L 770.976562 426.03125 L 771.644531 426.09375 L 772.296875 426.183594 L 772.933594 426.308594 L 773.554688 426.480469 L 774.15625 426.683594 L 774.761719 426.914062 L 775.335938 427.179688 L 775.894531 427.472656 L 776.4375 427.785156 L 776.949219 428.140625 L 777.460938 428.527344 L 777.929688 428.929688 L 778.394531 429.351562 L 778.8125 429.816406 L 779.214844 430.28125 L 779.605469 430.792969 L 779.960938 431.304688 L 780.269531 431.847656 L 780.566406 432.40625 L 780.828125 432.980469 L 781.0625 433.585938 L 781.265625 434.191406 L 781.433594 434.8125 L 781.558594 435.449219 L 781.652344 436.097656 L 781.714844 436.765625 L 781.730469 437.433594 L 781.714844 438.101562 L 781.652344 438.769531 L 781.558594 439.417969 L 781.433594 440.054688 L 781.265625 440.675781 L 781.0625 441.28125 L 780.828125 441.871094 L 780.566406 442.445312 L 780.269531 443.003906 L 779.960938 443.546875 L 779.605469 444.074219 L 779.214844 444.570312 L 778.8125 445.035156 L 778.394531 445.5 L 777.929688 445.921875 L 777.460938 446.339844 L 776.949219 446.710938 L 776.4375 447.070312 L 775.894531 447.378906 L 775.335938 447.671875 L 774.761719 447.9375 L 774.15625 448.171875 L 773.554688 448.371094 L 772.933594 448.542969 L 772.296875 448.667969 L 771.644531 448.757812 L 770.976562 448.820312 L 770.308594 448.835938 L 705.628906 448.835938 L 705.628906 490.246094 L 770.308594 490.246094 L 770.976562 490.261719 L 771.644531 490.324219 L 772.296875 490.417969 L 772.933594 490.542969 L 773.554688 490.710938 L 774.15625 490.914062 L 774.761719 491.148438 L 775.335938 491.410156 L 775.894531 491.707031 L 776.4375 492.015625 L 776.949219 492.371094 L 777.460938 492.746094 L 777.929688 493.164062 L 778.394531 493.582031 L 778.8125 494.046875 L 779.214844 494.515625 L 779.605469 495.011719 L 779.960938 495.539062 L 780.269531 496.082031 L 780.566406 496.640625 L 780.828125 497.214844 L 781.0625 497.804688 L 781.265625 498.40625 L 781.433594 499.027344 L 781.558594 499.664062 L 781.652344 500.316406 L 781.714844 500.984375 L 781.730469 501.652344 L 781.714844 502.316406 L 781.652344 502.984375 L 781.558594 503.636719 L 781.433594 504.273438 L 781.265625 504.894531 L 781.0625 505.5 L 780.828125 506.089844 L 780.566406 506.660156 L 780.269531 507.234375 L 779.960938 507.765625 L 779.605469 508.292969 L 779.214844 508.789062 L 778.8125 509.269531 L 778.394531 509.71875 L 777.929688 510.152344 L 777.460938 510.554688 L 776.949219 510.945312 L 776.4375 511.285156 L 775.894531 511.613281 L 775.335938 511.90625 L 774.761719 512.171875 L 774.15625 512.402344 L 773.554688 512.605469 L 772.933594 512.773438 L 772.296875 512.898438 L 771.644531 512.992188 L 770.976562 513.054688 L 770.308594 513.070312 L 705.628906 513.070312 L 705.628906 554.480469 L 770.308594 554.480469 L 770.976562 554.496094 L 771.644531 554.558594 L 772.296875 554.648438 L 772.933594 554.773438 L 773.554688 554.945312 L 774.15625 555.148438 L 774.761719 555.378906 L 775.335938 555.644531 L 775.894531 555.9375 L 776.4375 556.25 L 776.949219 556.605469 L 777.460938 556.976562 L 777.929688 557.398438 L 778.394531 557.816406 L 778.8125 558.28125 L 779.214844 558.746094 L 779.605469 559.242188 L 779.960938 559.769531 L 780.269531 560.3125 L 780.566406 560.871094 L 780.828125 561.445312 L 781.0625 562.035156 L 781.265625 562.640625 L 781.433594 563.261719 L 781.558594 563.898438 L 781.652344 564.550781 L 781.714844 565.214844 L 781.730469 565.882812 L 781.714844 566.550781 L 781.652344 567.21875 L 781.558594 567.871094 L 781.433594 568.503906 L 781.265625 569.125 L 781.0625 569.730469 L 780.828125 570.320312 L 780.566406 570.894531 L 780.269531 571.453125 L 779.960938 571.996094 L 779.605469 572.523438 L 779.214844 573.019531 L 778.8125 573.484375 L 778.394531 573.949219 L 777.929688 574.371094 L 777.460938 574.789062 L 776.949219 575.160156 L 776.4375 575.519531 L 775.894531 575.828125 L 775.335938 576.125 L 774.761719 576.386719 L 774.15625 576.621094 L 773.554688 576.820312 L 772.933594 576.992188 L 772.296875 577.117188 L 771.644531 577.210938 L 770.976562 577.269531 L 770.308594 577.285156 L 705.628906 577.285156 L 705.628906 618.695312 L 770.308594 618.695312 L 770.976562 618.710938 L 771.644531 618.773438 L 772.296875 618.867188 L 772.933594 618.992188 L 773.554688 619.164062 L 774.15625 619.363281 L 774.761719 619.597656 L 775.335938 619.859375 L 775.894531 620.15625 L 776.4375 620.480469 L 776.949219 620.824219 L 777.460938 621.210938 L 777.929688 621.613281 L 778.394531 622.046875 L 778.8125 622.496094 L 779.214844 622.980469 L 779.605469 623.476562 L 779.960938 624.003906 L 780.269531 624.53125 L 780.566406 625.105469 L 780.828125 625.679688 L 781.0625 626.269531 L 781.265625 626.875 L 781.433594 627.492188 L 781.558594 628.128906 L 781.652344 628.78125 L 781.714844 629.449219 L 781.730469 630.117188 L 781.714844 630.78125 L 781.652344 631.449219 L 781.558594 632.101562 L 781.433594 632.738281 L 781.265625 633.359375 L 781.0625 633.964844 L 780.828125 634.554688 L 780.566406 635.128906 L 780.269531 635.6875 L 779.960938 636.230469 L 779.605469 636.757812 L 779.214844 637.253906 L 778.8125 637.71875 L 778.394531 638.183594 L 777.929688 638.601562 L 777.460938 639.023438 L 776.949219 639.394531 L 776.4375 639.75 L 775.894531 640.0625 L 775.335938 640.355469 L 774.761719 640.621094 L 774.15625 640.851562 L 773.554688 641.054688 L 772.933594 641.226562 L 772.296875 641.347656 L 771.644531 641.441406 L 770.976562 641.503906 L 770.308594 641.519531 L 705.628906 641.519531 L 705.628906 694.222656 L 705.613281 694.691406 L 705.597656 695.15625 L 705.550781 695.621094 L 705.394531 696.519531 L 705.300781 696.96875 L 705.179688 697.40625 L 705.054688 697.824219 L 704.898438 698.242188 L 704.726562 698.660156 L 704.558594 699.066406 L 704.355469 699.46875 L 704.136719 699.855469 L 703.921875 700.230469 L 703.671875 700.601562 L 703.425781 700.957031 L 703.160156 701.316406 L 702.882812 701.640625 L 702.585938 701.964844 L 702.292969 702.292969 L 701.964844 702.585938 L 701.640625 702.882812 L 701.316406 703.160156 L 700.957031 703.425781 L 700.601562 703.671875 L 700.230469 703.921875 L 699.855469 704.136719 L 699.46875 704.355469 L 699.066406 704.558594 L 698.660156 704.726562 L 698.242188 704.898438 L 697.824219 705.054688 L 697.40625 705.179688 L 696.96875 705.300781 L 696.519531 705.394531 L 695.621094 705.550781 L 695.15625 705.597656 L 694.691406 705.613281 L 694.222656 705.628906 L 641.519531 705.628906 L 641.519531 770.308594 L 641.503906 770.976562 L 641.441406 771.644531 L 641.347656 772.296875 L 641.226562 772.933594 L 641.054688 773.554688 L 640.851562 774.15625 L 640.621094 774.761719 L 640.355469 775.335938 L 640.0625 775.894531 L 639.75 776.4375 L 639.394531 776.949219 L 639.023438 777.460938 L 638.601562 777.929688 L 638.183594 778.394531 L 637.71875 778.8125 L 637.253906 779.214844 L 636.757812 779.605469 L 636.230469 779.960938 L 635.6875 780.269531 L 635.128906 780.566406 L 634.554688 780.828125 L 633.964844 781.0625 L 633.359375 781.265625 L 632.738281 781.433594 L 632.101562 781.558594 L 631.449219 781.652344 L 630.78125 781.714844 L 630.117188 781.730469 L 629.449219 781.714844 L 628.78125 781.652344 L 628.128906 781.558594 L 627.492188 781.433594 L 626.875 781.265625 L 626.269531 781.0625 L 625.679688 780.828125 L 625.105469 780.566406 L 624.53125 780.269531 L 624.003906 779.960938 L 623.476562 779.605469 L 622.980469 779.214844 L 622.496094 778.8125 L 622.046875 778.394531 L 621.613281 777.929688 L 621.210938 777.460938 L 620.824219 776.949219 L 620.480469 776.4375 L 620.15625 775.894531 L 619.859375 775.335938 L 619.597656 774.761719 L 619.363281 774.15625 L 619.164062 773.554688 L 618.992188 772.933594 L 618.867188 772.296875 L 618.773438 771.644531 L 618.710938 770.976562 L 618.695312 770.308594 L 618.695312 705.628906 L 577.285156 705.628906 L 577.285156 770.308594 L 577.269531 770.976562 L 577.210938 771.644531 L 577.117188 772.296875 L 576.992188 772.933594 L 576.820312 773.554688 L 576.621094 774.15625 L 576.386719 774.761719 L 576.125 775.335938 L 575.828125 775.894531 L 575.519531 776.4375 L 575.160156 776.949219 L 574.789062 777.460938 L 574.371094 777.929688 L 573.949219 778.394531 L 573.484375 778.8125 L 573.019531 779.214844 L 572.523438 779.605469 L 571.996094 779.960938 L 571.453125 780.269531 L 570.894531 780.566406 L 570.320312 780.828125 L 569.730469 781.0625 L 569.125 781.265625 L 568.503906 781.433594 L 567.871094 781.558594 L 567.21875 781.652344 L 566.550781 781.714844 L 565.882812 781.730469 L 565.214844 781.714844 L 564.550781 781.652344 L 563.898438 781.558594 L 563.261719 781.433594 L 562.640625 781.265625 L 562.035156 781.0625 L 561.445312 780.828125 L 560.871094 780.566406 L 560.3125 780.269531 L 559.769531 779.960938 L 559.242188 779.605469 L 558.746094 779.214844 L 558.28125 778.8125 L 557.816406 778.394531 L 557.398438 777.929688 L 556.976562 777.460938 L 556.605469 776.949219 L 556.25 776.4375 L 555.9375 775.894531 L 555.644531 775.335938 L 555.378906 774.761719 L 555.148438 774.15625 L 554.945312 773.554688 L 554.773438 772.933594 L 554.648438 772.296875 L 554.558594 771.644531 L 554.496094 770.976562 L 554.480469 770.308594 L 554.480469 705.628906 L 512.945312 705.628906 L 512.945312 770.308594 L 512.929688 770.976562 L 512.867188 771.644531 L 512.773438 772.296875 L 512.652344 772.933594 L 512.480469 773.554688 L 512.277344 774.15625 L 512.046875 774.761719 L 511.78125 775.335938 L 511.488281 775.894531 L 511.175781 776.4375 L 510.820312 776.949219 L 510.449219 777.460938 L 510.027344 777.929688 L 509.609375 778.394531 L 509.144531 778.8125 L 508.679688 779.214844 L 508.183594 779.605469 L 507.65625 779.960938 L 507.113281 780.269531 L 506.554688 780.566406 L 505.980469 780.828125 L 505.390625 781.0625 L 504.785156 781.265625 L 504.164062 781.433594 L 503.527344 781.558594 L 502.875 781.652344 L 502.210938 781.714844 L 501.542969 781.730469 L 500.875 781.714844 L 500.207031 781.652344 L 499.554688 781.558594 L 498.921875 781.433594 L 498.300781 781.265625 L 497.695312 781.0625 L 497.105469 780.828125 L 496.53125 780.566406 L 495.972656 780.269531 L 495.429688 779.960938 L 494.902344 779.605469 L 494.40625 779.214844 L 493.941406 778.8125 L 493.472656 778.394531 L 493.054688 777.929688 L 492.636719 777.460938 L 492.265625 776.949219 L 491.90625 776.4375 L 491.597656 775.894531 L 491.300781 775.335938 L 491.039062 774.761719 L 490.804688 774.15625 L 490.605469 773.554688 L 490.433594 772.933594 L 490.308594 772.296875 L 490.214844 771.644531 L 490.152344 770.976562 L 490.136719 770.308594 L 490.136719 705.628906 L 448.714844 705.628906 L 448.714844 770.308594 L 448.699219 770.976562 L 448.636719 771.644531 L 448.542969 772.296875 L 448.417969 772.933594 L 448.246094 773.554688 L 448.046875 774.15625 L 447.8125 774.761719 L 447.550781 775.335938 L 447.253906 775.894531 L 446.945312 776.4375 L 446.585938 776.949219 L 446.214844 777.460938 L 445.796875 777.929688 L 445.378906 778.394531 L 444.910156 778.8125 L 444.445312 779.214844 L 443.949219 779.605469 L 443.421875 779.960938 L 442.878906 780.269531 L 442.320312 780.566406 L 441.746094 780.828125 L 441.15625 781.0625 L 440.550781 781.265625 L 439.929688 781.433594 L 439.296875 781.558594 L 438.644531 781.652344 L 437.976562 781.714844 L 437.308594 781.730469 L 436.640625 781.714844 L 435.976562 781.652344 L 435.324219 781.558594 L 434.6875 781.433594 L 434.066406 781.265625 L 433.460938 781.0625 L 432.871094 780.828125 L 432.296875 780.566406 L 431.738281 780.269531 L 431.195312 779.960938 L 430.667969 779.605469 L 430.171875 779.214844 L 429.707031 778.8125 L 429.242188 778.394531 L 428.824219 777.929688 L 428.402344 777.460938 L 428.03125 776.949219 L 427.675781 776.4375 L 427.363281 775.894531 L 427.070312 775.335938 L 426.804688 774.761719 L 426.574219 774.15625 L 426.371094 773.554688 L 426.199219 772.933594 L 426.078125 772.296875 L 425.984375 771.644531 L 425.921875 770.976562 L 425.90625 770.308594 L 425.90625 705.628906 L 384.605469 705.628906 L 384.605469 770.308594 L 384.589844 770.976562 L 384.527344 771.644531 L 384.433594 772.296875 L 384.308594 772.933594 L 384.140625 773.554688 L 383.9375 774.15625 L 383.703125 774.761719 L 383.441406 775.335938 L 383.144531 775.894531 L 382.835938 776.4375 L 382.480469 776.949219 L 382.105469 777.460938 L 381.6875 777.929688 L 381.269531 778.394531 L 380.804688 778.8125 L 380.339844 779.214844 L 379.839844 779.605469 L 379.3125 779.960938 L 378.769531 780.269531 L 378.210938 780.566406 L 377.636719 780.828125 L 377.050781 781.0625 L 376.445312 781.265625 L 375.824219 781.433594 L 375.1875 781.558594 L 374.535156 781.652344 L 373.867188 781.714844 L 373.199219 781.730469 L 372.535156 781.714844 L 371.867188 781.652344 L 371.214844 781.558594 L 370.578125 781.433594 L 369.957031 781.265625 L 369.351562 781.0625 L 368.765625 780.828125 L 368.191406 780.566406 L 367.632812 780.269531 L 367.089844 779.960938 L 366.5625 779.605469 L 366.0625 779.214844 L 365.597656 778.8125 L 365.132812 778.394531 L 364.714844 777.929688 L 364.296875 777.460938 L 363.921875 776.949219 L 363.566406 776.4375 L 363.257812 775.894531 L 362.960938 775.335938 L 362.699219 774.761719 L 362.464844 774.15625 L 362.261719 773.554688 L 362.09375 772.933594 L 361.96875 772.296875 L 361.875 771.644531 L 361.8125 770.976562 L 361.796875 770.308594 L 361.796875 705.628906 L 320.371094 705.628906 L 320.371094 770.308594 L 320.355469 770.976562 L 320.292969 771.644531 L 320.203125 772.296875 L 320.078125 772.933594 L 319.90625 773.554688 L 319.703125 774.15625 L 319.472656 774.761719 L 319.207031 775.335938 L 318.914062 775.894531 L 318.601562 776.4375 L 318.246094 776.949219 L 317.875 777.460938 L 317.457031 777.929688 L 317.035156 778.394531 L 316.570312 778.8125 L 316.105469 779.214844 L 315.609375 779.605469 L 315.082031 779.960938 L 314.539062 780.269531 L 313.980469 780.566406 L 313.40625 780.828125 L 312.816406 781.0625 L 312.210938 781.265625 L 311.589844 781.433594 L 310.953125 781.558594 L 310.304688 781.652344 L 309.636719 781.714844 L 308.96875 781.730469 L 308.300781 781.714844 L 307.632812 781.652344 L 306.984375 781.558594 L 306.347656 781.433594 L 305.726562 781.265625 L 305.121094 781.0625 L 304.53125 780.828125 L 303.957031 780.566406 L 303.398438 780.269531 L 302.855469 779.960938 L 302.328125 779.605469 L 301.832031 779.214844 L 301.367188 778.8125 L 300.902344 778.394531 L 300.480469 777.929688 L 300.0625 777.460938 L 299.691406 776.949219 L 299.332031 776.4375 L 299.023438 775.894531 L 298.730469 775.335938 L 298.464844 774.761719 L 298.230469 774.15625 L 298.03125 773.554688 L 297.859375 772.933594 L 297.734375 772.296875 L 297.640625 771.644531 L 297.582031 770.976562 L 297.566406 770.308594 L 297.566406 705.628906 L 256.03125 705.628906 L 256.03125 770.308594 L 256.015625 770.976562 L 255.953125 771.644531 L 255.859375 772.296875 L 255.734375 772.933594 L 255.566406 773.554688 L 255.363281 774.15625 L 255.132812 774.761719 L 254.867188 775.335938 L 254.574219 775.894531 L 254.261719 776.4375 L 253.90625 776.949219 L 253.53125 777.460938 L 253.113281 777.929688 L 252.695312 778.394531 L 252.230469 778.8125 L 251.765625 779.214844 L 251.269531 779.605469 L 250.742188 779.960938 L 250.195312 780.269531 L 249.640625 780.566406 L 249.066406 780.828125 L 248.476562 781.0625 L 247.871094 781.265625 L 247.25 781.433594 L 246.613281 781.558594 L 245.960938 781.652344 L 245.292969 781.714844 L 244.628906 781.730469 L 243.960938 781.714844 L 243.292969 781.652344 L 242.640625 781.558594 L 242.003906 781.433594 L 241.382812 781.265625 L 240.78125 781.0625 L 240.191406 780.828125 L 239.617188 780.566406 L 239.058594 780.269531 L 238.515625 779.960938 L 237.988281 779.605469 L 237.492188 779.214844 L 237.023438 778.8125 L 236.558594 778.394531 L 236.140625 777.929688 L 235.722656 777.460938 L 235.347656 776.949219 L 234.992188 776.4375 L 234.683594 775.894531 L 234.386719 775.335938 L 234.125 774.761719 L 233.890625 774.15625 L 233.6875 773.554688 L 233.519531 772.933594 L 233.394531 772.296875 L 233.300781 771.644531 L 233.238281 770.976562 L 233.222656 770.308594 L 233.222656 705.628906 L 191.8125 705.628906 L 191.8125 770.308594 L 191.796875 770.976562 L 191.734375 771.644531 L 191.644531 772.296875 L 191.519531 772.933594 L 191.347656 773.554688 L 191.148438 774.15625 L 190.914062 774.761719 L 190.648438 775.335938 L 190.355469 775.894531 L 190.03125 776.4375 L 189.6875 776.949219 L 189.300781 777.460938 L 188.898438 777.929688 L 188.460938 778.394531 L 188.011719 778.8125 L 187.53125 779.214844 L 187.035156 779.605469 L 186.507812 779.960938 L 185.980469 780.269531 L 185.40625 780.566406 L 184.832031 780.828125 L 184.242188 781.0625 L 183.636719 781.265625 L 183.015625 781.433594 L 182.378906 781.558594 L 181.730469 781.652344 L 181.0625 781.714844 L 180.394531 781.730469 L 179.726562 781.714844 L 179.058594 781.652344 L 178.410156 781.558594 L 177.773438 781.433594 L 177.152344 781.265625 L 176.546875 781.0625 L 175.957031 780.828125 L 175.382812 780.566406 L 174.824219 780.269531 L 174.28125 779.960938 L 173.753906 779.605469 L 173.257812 779.214844 L 172.792969 778.8125 L 172.328125 778.394531 L 171.90625 777.929688 L 171.488281 777.460938 L 171.117188 776.949219 L 170.761719 776.4375 L 170.449219 775.894531 L 170.15625 775.335938 L 169.890625 774.761719 L 169.660156 774.15625 L 169.457031 773.554688 L 169.285156 772.933594 L 169.160156 772.296875 L 169.070312 771.644531 L 169.007812 770.976562 L 168.992188 770.308594 L 168.992188 705.628906 L 116.285156 705.628906 L 115.355469 705.597656 L 114.890625 705.550781 L 114.441406 705.472656 L 113.988281 705.394531 L 113.539062 705.300781 L 113.105469 705.179688 L 112.6875 705.054688 L 112.269531 704.898438 L 111.847656 704.726562 L 111.445312 704.558594 L 111.042969 704.355469 L 110.65625 704.136719 L 110.28125 703.921875 L 109.910156 703.671875 L 109.554688 703.425781 L 109.195312 703.160156 L 108.871094 702.882812 L 108.542969 702.585938 L 108.21875 702.292969 L 107.921875 701.964844 L 107.628906 701.640625 L 107.347656 701.316406 L 107.085938 700.957031 L 106.835938 700.601562 L 106.589844 700.230469 L 106.371094 699.855469 L 106.15625 699.46875 L 105.953125 699.066406 L 105.78125 698.660156 L 105.613281 698.242188 L 105.457031 697.824219 L 105.332031 697.40625 L 105.207031 696.96875 L 105.117188 696.519531 L 104.960938 695.621094 L 104.914062 695.15625 L 104.898438 694.691406 L 104.882812 694.222656 L 104.882812 641.519531 L 40.199219 641.519531 L 39.53125 641.503906 L 38.867188 641.441406 L 38.214844 641.347656 L 37.578125 641.226562 L 36.957031 641.054688 L 36.351562 640.851562 L 35.746094 640.621094 L 35.171875 640.355469 L 34.613281 640.0625 L 34.070312 639.75 L 33.558594 639.394531 L 33.046875 639.023438 L 32.582031 638.601562 L 32.117188 638.183594 L 31.699219 637.71875 L 31.292969 637.253906 L 30.90625 636.757812 L 30.550781 636.230469 L 30.238281 635.6875 L 29.945312 635.128906 L 29.679688 634.554688 L 29.449219 633.964844 L 29.246094 633.359375 L 29.074219 632.738281 L 28.953125 632.101562 L 28.859375 631.449219 L 28.796875 630.78125 L 28.78125 630.117188 L 28.796875 629.449219 L 28.859375 628.78125 L 28.953125 628.128906 L 29.074219 627.492188 L 29.246094 626.875 L 29.449219 626.269531 L 29.679688 625.679688 L 29.945312 625.105469 L 30.238281 624.53125 L 30.550781 624.003906 L 30.90625 623.476562 L 31.292969 622.980469 L 31.699219 622.496094 L 32.117188 622.046875 L 32.582031 621.613281 L 33.046875 621.210938 L 33.558594 620.824219 L 34.070312 620.480469 L 34.613281 620.15625 L 35.171875 619.859375 L 35.746094 619.597656 L 36.351562 619.363281 L 36.957031 619.164062 L 37.578125 618.992188 L 38.214844 618.867188 L 38.867188 618.773438 L 39.53125 618.710938 L 40.199219 618.695312 L 104.882812 618.695312 L 104.882812 577.285156 L 40.199219 577.285156 L 39.53125 577.269531 L 38.867188 577.210938 L 38.214844 577.117188 L 37.578125 576.992188 L 36.957031 576.820312 L 36.351562 576.621094 L 35.746094 576.386719 L 35.171875 576.125 L 34.613281 575.828125 L 34.070312 575.519531 L 33.558594 575.160156 L 33.046875 574.789062 L 32.582031 574.371094 L 32.117188 573.949219 L 31.699219 573.484375 L 31.292969 573.019531 L 30.90625 572.523438 L 30.550781 571.996094 L 30.238281 571.453125 L 29.945312 570.894531 L 29.679688 570.320312 L 29.449219 569.730469 L 29.246094 569.125 L 29.074219 568.503906 L 28.953125 567.871094 L 28.859375 567.21875 L 28.796875 566.550781 L 28.78125 565.882812 L 28.796875 565.214844 L 28.859375 564.550781 L 28.953125 563.898438 L 29.074219 563.261719 L 29.246094 562.640625 L 29.449219 562.035156 L 29.679688 561.445312 L 29.945312 560.871094 L 30.238281 560.3125 L 30.550781 559.769531 L 30.90625 559.242188 L 31.292969 558.746094 L 31.699219 558.28125 L 32.117188 557.816406 L 32.582031 557.398438 L 33.046875 556.976562 L 33.558594 556.605469 L 34.070312 556.25 L 34.613281 555.9375 L 35.171875 555.644531 L 35.746094 555.378906 L 36.351562 555.148438 L 36.957031 554.945312 L 37.578125 554.773438 L 38.214844 554.648438 L 38.867188 554.558594 L 39.53125 554.496094 L 40.199219 554.480469 L 104.882812 554.480469 L 104.882812 513.070312 L 40.199219 513.070312 L 39.53125 513.054688 L 38.867188 512.992188 L 38.214844 512.898438 L 37.578125 512.773438 L 36.957031 512.605469 L 36.351562 512.402344 L 35.746094 512.171875 L 35.171875 511.90625 L 34.613281 511.613281 L 34.070312 511.285156 L 33.558594 510.945312 L 33.046875 510.554688 L 32.582031 510.152344 L 32.117188 509.71875 L 31.699219 509.269531 L 31.292969 508.789062 L 30.90625 508.292969 L 30.550781 507.765625 L 30.238281 507.234375 L 29.945312 506.660156 L 29.679688 506.089844 L 29.449219 505.5 L 29.246094 504.894531 L 29.074219 504.273438 L 28.953125 503.636719 L 28.859375 502.984375 L 28.796875 502.316406 L 28.78125 501.652344 L 28.796875 500.984375 L 28.859375 500.316406 L 28.953125 499.664062 L 29.074219 499.027344 L 29.246094 498.40625 L 29.449219 497.804688 L 29.679688 497.214844 L 29.945312 496.640625 L 30.238281 496.082031 L 30.550781 495.539062 L 30.90625 495.011719 L 31.292969 494.515625 L 31.699219 494.046875 L 32.117188 493.582031 L 33.046875 492.746094 L 33.558594 492.371094 L 34.070312 492.015625 L 34.613281 491.707031 L 35.171875 491.410156 L 35.746094 491.148438 L 36.351562 490.914062 L 36.957031 490.710938 L 37.578125 490.542969 L 38.214844 490.417969 L 38.867188 490.324219 L 39.53125 490.261719 L 40.199219 490.246094 L 104.882812 490.246094 L 104.882812 448.835938 L 40.199219 448.835938 L 39.53125 448.820312 L 38.867188 448.757812 L 38.214844 448.667969 L 37.578125 448.542969 L 36.957031 448.371094 L 36.351562 448.171875 L 35.746094 447.9375 L 35.171875 447.671875 L 34.613281 447.378906 L 34.070312 447.070312 L 33.558594 446.710938 L 33.046875 446.339844 L 32.582031 445.921875 L 32.117188 445.5 L 31.699219 445.035156 L 31.292969 444.570312 L 30.90625 444.074219 L 30.550781 443.546875 L 30.238281 443.003906 L 29.945312 442.445312 L 29.679688 441.871094 L 29.449219 441.28125 L 29.246094 440.675781 L 29.074219 440.054688 L 28.953125 439.417969 L 28.859375 438.769531 L 28.796875 438.101562 L 28.78125 437.433594 L 28.796875 436.765625 L 28.859375 436.097656 L 28.953125 435.449219 L 29.074219 434.8125 L 29.246094 434.191406 L 29.449219 433.585938 L 29.679688 432.980469 L 29.945312 432.40625 L 30.238281 431.847656 L 30.550781 431.304688 L 30.90625 430.792969 L 31.292969 430.28125 L 31.699219 429.816406 L 32.117188 429.351562 L 32.582031 428.929688 L 33.046875 428.527344 L 33.558594 428.140625 L 34.070312 427.785156 L 34.613281 427.472656 L 35.171875 427.179688 L 35.746094 426.914062 L 36.351562 426.683594 L 36.957031 426.480469 L 37.578125 426.308594 L 38.214844 426.183594 L 38.867188 426.09375 L 39.53125 426.03125 L 40.199219 426.015625 L 104.882812 426.015625 L 104.882812 384.496094 L 40.199219 384.496094 L 39.53125 384.480469 L 38.867188 384.417969 L 38.214844 384.324219 L 37.578125 384.203125 L 36.957031 384.03125 L 36.351562 383.828125 L 35.746094 383.597656 L 35.171875 383.332031 L 34.613281 383.039062 L 34.070312 382.726562 L 33.558594 382.371094 L 33.046875 381.984375 L 32.582031 381.578125 L 32.117188 381.160156 L 31.699219 380.695312 L 31.292969 380.230469 L 30.90625 379.71875 L 30.550781 379.207031 L 30.238281 378.664062 L 29.945312 378.105469 L 29.679688 377.53125 L 29.449219 376.925781 L 29.246094 376.320312 L 29.074219 375.699219 L 28.953125 375.0625 L 28.859375 374.410156 L 28.796875 373.742188 L 28.78125 373.078125 L 28.796875 372.410156 L 28.859375 371.742188 L 28.953125 371.089844 L 29.074219 370.453125 L 29.246094 369.835938 L 29.449219 369.230469 L 29.679688 368.640625 L 29.945312 368.066406 L 30.238281 367.507812 L 30.550781 366.964844 L 30.90625 366.4375 L 31.292969 365.941406 L 31.699219 365.472656 L 32.117188 365.007812 L 33.046875 364.171875 L 33.558594 363.800781 L 34.070312 363.441406 L 34.613281 363.132812 L 35.171875 362.835938 L 35.746094 362.574219 L 36.351562 362.339844 L 36.957031 362.140625 L 37.578125 361.96875 L 38.214844 361.84375 L 38.867188 361.75 L 39.53125 361.6875 L 40.199219 361.671875 L 104.882812 361.671875 L 104.882812 320.261719 L 40.199219 320.261719 L 39.53125 320.246094 L 38.867188 320.1875 L 38.214844 320.09375 L 37.578125 319.96875 L 36.957031 319.796875 L 36.351562 319.597656 L 35.746094 319.363281 L 35.171875 319.101562 L 34.613281 318.804688 L 34.070312 318.496094 L 33.558594 318.136719 L 33.046875 317.765625 L 32.117188 316.929688 L 31.699219 316.460938 L 31.292969 315.996094 L 30.90625 315.5 L 30.550781 314.972656 L 30.238281 314.429688 L 29.945312 313.871094 L 29.679688 313.296875 L 29.449219 312.707031 L 29.246094 312.101562 L 29.074219 311.480469 L 28.953125 310.847656 L 28.859375 310.195312 L 28.796875 309.527344 L 28.78125 308.859375 L 28.796875 308.191406 L 28.859375 307.527344 L 28.953125 306.875 L 29.074219 306.238281 L 29.246094 305.617188 L 29.449219 305.011719 L 29.679688 304.421875 L 29.945312 303.847656 L 30.238281 303.273438 L 30.550781 302.746094 L 30.90625 302.21875 L 31.292969 301.722656 L 31.699219 301.242188 L 32.117188 300.792969 L 32.582031 300.359375 L 33.046875 299.953125 L 33.558594 299.566406 L 34.070312 299.226562 L 34.613281 298.898438 L 35.171875 298.605469 L 35.746094 298.339844 L 36.351562 298.109375 L 36.957031 297.90625 L 37.578125 297.734375 L 38.214844 297.613281 L 38.867188 297.519531 L 39.53125 297.457031 L 40.199219 297.441406 L 104.882812 297.441406 L 104.882812 256.03125 L 40.199219 256.03125 L 39.53125 256.015625 L 38.867188 255.953125 L 38.214844 255.859375 L 37.578125 255.734375 L 36.957031 255.566406 L 36.351562 255.363281 L 35.746094 255.132812 L 35.171875 254.867188 L 34.613281 254.574219 L 34.070312 254.261719 L 33.558594 253.90625 L 33.046875 253.53125 L 32.117188 252.695312 L 31.699219 252.230469 L 31.292969 251.765625 L 30.90625 251.269531 L 30.550781 250.742188 L 30.238281 250.195312 L 29.945312 249.640625 L 29.679688 249.066406 L 29.449219 248.476562 L 29.246094 247.871094 L 29.074219 247.25 L 28.953125 246.613281 L 28.859375 245.960938 L 28.796875 245.292969 L 28.78125 244.628906 L 28.796875 243.960938 L 28.859375 243.292969 L 28.953125 242.640625 L 29.074219 242.003906 L 29.246094 241.382812 L 29.449219 240.78125 L 29.679688 240.191406 L 29.945312 239.617188 L 30.238281 239.058594 L 30.550781 238.515625 L 30.90625 237.988281 L 31.292969 237.492188 L 31.699219 237.023438 L 32.117188 236.558594 L 33.046875 235.722656 L 33.558594 235.347656 L 34.070312 234.992188 L 34.613281 234.683594 L 35.171875 234.386719 L 35.746094 234.125 L 36.351562 233.890625 L 36.957031 233.6875 L 37.578125 233.519531 L 38.214844 233.394531 L 38.867188 233.300781 L 39.53125 233.238281 L 40.199219 233.222656 L 104.882812 233.222656 L 104.882812 191.8125 L 40.199219 191.8125 L 39.53125 191.796875 L 38.867188 191.734375 L 38.214844 191.644531 L 37.578125 191.519531 L 36.957031 191.347656 L 36.351562 191.148438 L 35.746094 190.914062 L 35.171875 190.648438 L 34.613281 190.355469 L 34.070312 190.03125 L 33.558594 189.6875 L 33.046875 189.300781 L 32.582031 188.898438 L 32.117188 188.460938 L 31.699219 188.011719 L 31.292969 187.53125 L 30.90625 187.035156 L 30.550781 186.507812 L 30.238281 185.980469 L 29.945312 185.40625 L 29.679688 184.832031 L 29.449219 184.242188 L 29.246094 183.636719 L 29.074219 183.015625 L 28.953125 182.378906 L 28.859375 181.730469 L 28.796875 181.0625 L 28.78125 180.394531 L 28.796875 179.726562 L 28.859375 179.058594 L 28.953125 178.410156 L 29.074219 177.773438 L 29.246094 177.152344 L 29.449219 176.546875 L 29.679688 175.957031 L 29.945312 175.382812 L 30.238281 174.824219 L 30.550781 174.28125 L 30.90625 173.753906 L 31.292969 173.257812 L 31.699219 172.792969 L 32.117188 172.328125 L 32.582031 171.90625 L 33.046875 171.488281 L 33.558594 171.117188 L 34.070312 170.761719 L 34.613281 170.449219 L 35.171875 170.15625 L 35.746094 169.890625 L 36.351562 169.660156 L 36.957031 169.457031 L 37.578125 169.285156 L 38.214844 169.160156 L 38.867188 169.070312 L 39.53125 169.007812 L 40.199219 168.992188 L 104.882812 168.992188 L 104.882812 116.285156 L 104.914062 115.355469 L 104.960938 114.890625 L 105.039062 114.441406 L 105.117188 113.988281 L 105.207031 113.539062 L 105.332031 113.105469 L 105.457031 112.6875 L 105.613281 112.269531 L 105.78125 111.847656 L 105.953125 111.445312 L 106.15625 111.042969 L 106.371094 110.65625 L 106.589844 110.28125 L 106.835938 109.910156 L 107.085938 109.554688 L 107.347656 109.195312 L 107.628906 108.871094 L 107.921875 108.542969 L 108.21875 108.21875 L 108.542969 107.921875 L 108.871094 107.628906 L 109.195312 107.351562 L 109.554688 107.085938 L 109.910156 106.835938 L 110.28125 106.589844 L 110.65625 106.371094 L 111.042969 106.15625 L 111.445312 105.953125 L 111.847656 105.78125 L 112.269531 105.613281 L 112.6875 105.457031 L 113.105469 105.332031 L 113.539062 105.207031 L 113.988281 105.117188 L 114.441406 105.039062 L 114.890625 104.960938 L 115.355469 104.914062 L 116.285156 104.882812 L 168.992188 104.882812 L 168.992188 40.199219 L 169.007812 39.53125 L 169.070312 38.867188 L 169.160156 38.214844 L 169.285156 37.578125 L 169.457031 36.957031 L 169.660156 36.351562 L 169.890625 35.746094 L 170.15625 35.171875 L 170.449219 34.613281 L 170.761719 34.070312 L 171.117188 33.558594 L 171.488281 33.046875 L 171.90625 32.582031 L 172.328125 32.117188 L 172.792969 31.699219 L 173.257812 31.292969 L 173.753906 30.90625 L 174.28125 30.550781 L 174.824219 30.238281 L 175.382812 29.945312 L 175.957031 29.679688 L 176.546875 29.449219 L 177.152344 29.246094 L 177.773438 29.074219 L 178.410156 28.953125 L 179.058594 28.859375 L 179.726562 28.796875 L 180.394531 28.78125 L 181.0625 28.796875 L 181.730469 28.859375 L 182.378906 28.953125 L 183.015625 29.074219 L 183.636719 29.246094 L 184.242188 29.449219 L 184.832031 29.679688 L 185.40625 29.945312 L 185.980469 30.238281 L 186.507812 30.550781 L 187.035156 30.90625 L 187.53125 31.292969 L 188.011719 31.699219 L 188.460938 32.117188 L 188.898438 32.582031 L 189.300781 33.046875 L 189.6875 33.558594 L 190.03125 34.070312 L 190.355469 34.613281 L 190.648438 35.171875 L 190.914062 35.746094 L 191.148438 36.351562 L 191.347656 36.957031 L 191.519531 37.578125 L 191.644531 38.214844 L 191.734375 38.867188 L 191.796875 39.53125 L 191.8125 40.199219 L 191.8125 104.882812 L 233.222656 104.882812 L 233.222656 40.199219 L 233.238281 39.53125 L 233.300781 38.867188 L 233.394531 38.214844 L 233.519531 37.578125 L 233.6875 36.957031 L 233.890625 36.351562 L 234.125 35.746094 L 234.386719 35.171875 L 234.683594 34.613281 L 234.992188 34.070312 L 235.347656 33.558594 L 235.722656 33.046875 L 236.558594 32.117188 L 237.023438 31.699219 L 237.492188 31.292969 L 237.988281 30.90625 L 238.515625 30.550781 L 239.058594 30.238281 L 239.617188 29.945312 L 240.191406 29.679688 L 240.78125 29.449219 L 241.382812 29.246094 L 242.003906 29.074219 L 242.640625 28.953125 L 243.292969 28.859375 L 243.960938 28.796875 L 244.628906 28.78125 L 245.292969 28.796875 L 245.960938 28.859375 L 246.613281 28.953125 L 247.25 29.074219 L 247.871094 29.246094 L 248.476562 29.449219 L 249.066406 29.679688 L 249.640625 29.945312 L 250.195312 30.238281 L 250.742188 30.550781 L 251.269531 30.90625 L 251.765625 31.292969 L 252.230469 31.699219 L 252.695312 32.117188 L 253.53125 33.046875 L 253.90625 33.558594 L 254.261719 34.070312 L 254.574219 34.613281 L 254.867188 35.171875 L 255.132812 35.746094 L 255.363281 36.351562 L 255.566406 36.957031 L 255.734375 37.578125 L 255.859375 38.214844 L 255.953125 38.867188 L 256.015625 39.53125 L 256.03125 40.199219 L 256.03125 104.882812 L 297.566406 104.882812 L 297.566406 40.199219 L 297.582031 39.53125 L 297.640625 38.867188 L 297.734375 38.214844 L 297.859375 37.578125 L 298.03125 36.957031 L 298.230469 36.351562 L 298.464844 35.746094 L 298.730469 35.171875 L 299.023438 34.613281 L 299.332031 34.070312 L 299.691406 33.558594 L 300.0625 33.046875 L 300.480469 32.582031 L 300.902344 32.117188 L 301.367188 31.699219 L 301.832031 31.292969 L 302.328125 30.90625 L 302.855469 30.550781 L 303.398438 30.238281 L 303.957031 29.945312 L 304.53125 29.679688 L 305.121094 29.449219 L 305.726562 29.246094 L 306.347656 29.074219 L 306.984375 28.953125 L 307.632812 28.859375 L 308.300781 28.796875 L 308.96875 28.78125 L 309.636719 28.796875 L 310.304688 28.859375 L 310.953125 28.953125 L 311.589844 29.074219 L 312.210938 29.246094 L 312.816406 29.449219 L 313.40625 29.679688 L 313.980469 29.945312 L 314.539062 30.238281 L 315.082031 30.550781 L 315.609375 30.90625 L 316.105469 31.292969 L 316.570312 31.699219 L 317.035156 32.117188 L 317.457031 32.582031 L 317.875 33.046875 L 318.246094 33.558594 L 318.601562 34.070312 L 318.914062 34.613281 L 319.207031 35.171875 L 319.472656 35.746094 L 319.703125 36.351562 L 319.90625 36.957031 L 320.078125 37.578125 L 320.203125 38.214844 L 320.292969 38.867188 L 320.355469 39.53125 L 320.371094 40.199219 L 320.371094 104.882812 L 361.796875 104.882812 L 361.796875 40.199219 L 361.8125 39.53125 L 361.875 38.867188 L 361.96875 38.214844 L 362.09375 37.578125 L 362.261719 36.957031 L 362.464844 36.351562 L 362.699219 35.746094 L 362.960938 35.171875 L 363.257812 34.613281 L 363.566406 34.070312 L 363.921875 33.558594 L 364.296875 33.046875 L 365.132812 32.117188 L 365.597656 31.699219 L 366.0625 31.292969 L 366.5625 30.90625 L 367.089844 30.550781 L 367.632812 30.238281 L 368.191406 29.945312 L 368.765625 29.679688 L 369.351562 29.449219 L 369.957031 29.246094 L 370.578125 29.074219 L 371.214844 28.953125 L 371.867188 28.859375 L 372.535156 28.796875 L 373.199219 28.78125 L 373.867188 28.796875 L 374.535156 28.859375 L 375.1875 28.953125 L 375.824219 29.074219 L 376.445312 29.246094 L 377.050781 29.449219 L 377.636719 29.679688 L 378.210938 29.945312 L 378.769531 30.238281 L 379.3125 30.550781 L 379.839844 30.90625 L 380.339844 31.292969 L 380.804688 31.699219 L 381.269531 32.117188 L 382.105469 33.046875 L 382.480469 33.558594 L 382.835938 34.070312 L 383.144531 34.613281 L 383.441406 35.171875 L 383.703125 35.746094 L 383.9375 36.351562 L 384.140625 36.957031 L 384.308594 37.578125 L 384.433594 38.214844 L 384.527344 38.867188 L 384.589844 39.53125 L 384.605469 40.199219 L 384.605469 104.882812 L 425.90625 104.882812 L 425.90625 40.199219 L 425.921875 39.53125 L 425.984375 38.867188 L 426.078125 38.214844 L 426.199219 37.578125 L 426.371094 36.957031 L 426.574219 36.351562 L 426.804688 35.746094 L 427.070312 35.171875 L 427.363281 34.613281 L 427.675781 34.070312 L 428.03125 33.558594 L 428.402344 33.046875 L 428.824219 32.582031 L 429.242188 32.117188 L 429.707031 31.699219 L 430.171875 31.292969 L 430.667969 30.90625 L 431.195312 30.550781 L 431.738281 30.238281 L 432.296875 29.945312 L 432.871094 29.679688 L 433.460938 29.449219 L 434.066406 29.246094 L 434.6875 29.074219 L 435.324219 28.953125 L 435.976562 28.859375 L 436.640625 28.796875 L 437.308594 28.78125 L 437.976562 28.796875 L 438.644531 28.859375 L 439.296875 28.953125 L 439.929688 29.074219 L 440.550781 29.246094 L 441.15625 29.449219 L 441.746094 29.679688 L 442.320312 29.945312 L 442.878906 30.238281 L 443.421875 30.550781 L 443.949219 30.90625 L 444.445312 31.292969 L 444.910156 31.699219 L 445.378906 32.117188 L 446.214844 33.046875 L 446.585938 33.558594 L 446.945312 34.070312 L 447.253906 34.613281 L 447.550781 35.171875 L 447.8125 35.746094 L 448.046875 36.351562 L 448.246094 36.957031 L 448.417969 37.578125 L 448.542969 38.214844 L 448.636719 38.867188 L 448.699219 39.53125 L 448.714844 40.199219 L 448.714844 104.882812 L 490.136719 104.882812 L 490.136719 40.199219 L 490.152344 39.53125 L 490.214844 38.867188 L 490.308594 38.214844 L 490.433594 37.578125 L 490.605469 36.957031 L 490.804688 36.351562 L 491.039062 35.746094 L 491.300781 35.171875 L 491.597656 34.613281 L 491.90625 34.070312 L 492.265625 33.558594 L 492.636719 33.046875 L 493.472656 32.117188 L 493.941406 31.699219 L 494.40625 31.292969 L 494.902344 30.90625 L 495.429688 30.550781 L 495.972656 30.238281 L 496.53125 29.945312 L 497.105469 29.679688 L 497.695312 29.449219 L 498.300781 29.246094 L 498.921875 29.074219 L 499.554688 28.953125 L 500.207031 28.859375 L 500.875 28.796875 L 501.542969 28.78125 L 502.210938 28.796875 L 502.875 28.859375 L 503.527344 28.953125 L 504.164062 29.074219 L 504.785156 29.246094 L 505.390625 29.449219 L 505.980469 29.679688 L 506.554688 29.945312 L 507.113281 30.238281 L 507.65625 30.550781 L 508.183594 30.90625 L 508.679688 31.292969 L 509.144531 31.699219 L 509.609375 32.117188 L 510.027344 32.582031 L 510.449219 33.046875 L 510.820312 33.558594 L 511.175781 34.070312 L 511.488281 34.613281 L 511.78125 35.171875 L 512.046875 35.746094 L 512.277344 36.351562 L 512.480469 36.957031 L 512.652344 37.578125 L 512.773438 38.214844 L 512.867188 38.867188 L 512.929688 39.53125 L 512.945312 40.199219 L 512.945312 104.882812 L 554.480469 104.882812 L 554.480469 40.199219 L 554.496094 39.53125 L 554.558594 38.867188 L 554.648438 38.214844 L 554.773438 37.578125 L 554.945312 36.957031 L 555.148438 36.351562 L 555.378906 35.746094 L 555.644531 35.171875 L 555.9375 34.613281 L 556.25 34.070312 L 556.605469 33.558594 L 556.976562 33.046875 L 557.398438 32.582031 L 557.816406 32.117188 L 558.28125 31.699219 L 558.746094 31.292969 L 559.242188 30.90625 L 559.769531 30.550781 L 560.3125 30.238281 L 560.871094 29.945312 L 561.445312 29.679688 L 562.035156 29.449219 L 562.640625 29.246094 L 563.261719 29.074219 L 563.898438 28.953125 L 564.550781 28.859375 L 565.214844 28.796875 L 565.882812 28.78125 L 566.550781 28.796875 L 567.21875 28.859375 L 567.871094 28.953125 L 568.503906 29.074219 L 569.125 29.246094 L 569.730469 29.449219 L 570.320312 29.679688 L 570.894531 29.945312 L 571.453125 30.238281 L 571.996094 30.550781 L 572.523438 30.90625 L 573.019531 31.292969 L 573.484375 31.699219 L 573.949219 32.117188 L 574.371094 32.582031 L 574.789062 33.046875 L 575.160156 33.558594 L 575.519531 34.070312 L 575.828125 34.613281 L 576.125 35.171875 L 576.386719 35.746094 L 576.621094 36.351562 L 576.820312 36.957031 L 576.992188 37.578125 L 577.117188 38.214844 L 577.210938 38.867188 L 577.269531 39.53125 L 577.285156 40.199219 L 577.285156 104.882812 L 618.695312 104.882812 L 618.695312 40.199219 L 618.710938 39.53125 L 618.773438 38.867188 L 618.867188 38.214844 L 618.992188 37.578125 L 619.164062 36.957031 L 619.363281 36.351562 L 619.597656 35.746094 L 619.859375 35.171875 L 620.15625 34.613281 L 620.480469 34.070312 L 620.824219 33.558594 L 621.210938 33.046875 L 621.613281 32.582031 L 622.046875 32.117188 L 622.496094 31.699219 L 622.980469 31.292969 L 623.476562 30.90625 L 624.003906 30.550781 L 624.53125 30.238281 L 625.105469 29.945312 L 625.679688 29.679688 L 626.269531 29.449219 L 626.875 29.246094 L 627.492188 29.074219 L 628.128906 28.953125 L 628.78125 28.859375 L 629.449219 28.796875 L 630.117188 28.78125 L 630.78125 28.796875 Z M 127.691406 682.820312 L 682.820312 682.820312 L 682.820312 127.691406 L 127.691406 127.691406 Z M 638.121094 161.949219 L 638.585938 161.992188 L 639.035156 162.070312 L 639.488281 162.148438 L 639.9375 162.242188 L 640.371094 162.367188 L 640.789062 162.492188 L 641.210938 162.644531 L 641.628906 162.816406 L 642.03125 162.988281 L 642.433594 163.1875 L 642.824219 163.40625 L 643.195312 163.621094 L 643.566406 163.871094 L 643.925781 164.121094 L 644.28125 164.382812 L 644.605469 164.664062 L 644.933594 164.957031 L 645.257812 165.253906 L 645.554688 165.578125 L 645.847656 165.902344 L 646.128906 166.230469 L 646.390625 166.585938 L 646.640625 166.941406 L 646.886719 167.316406 L 647.105469 167.6875 L 647.320312 168.074219 L 647.523438 168.480469 L 647.695312 168.882812 L 647.863281 169.300781 L 648.019531 169.71875 L 648.144531 170.140625 L 648.269531 170.574219 L 648.363281 171.023438 L 648.4375 171.472656 L 648.515625 171.921875 L 648.5625 172.390625 L 648.59375 173.320312 L 648.59375 637.300781 L 648.5625 638.230469 L 648.515625 638.695312 L 648.4375 639.144531 L 648.363281 639.59375 L 648.269531 640.046875 L 648.144531 640.480469 L 648.019531 640.898438 L 647.863281 641.316406 L 647.695312 641.738281 L 647.523438 642.140625 L 647.320312 642.542969 L 647.105469 642.929688 L 646.886719 643.304688 L 646.640625 643.675781 L 646.390625 644.03125 L 646.128906 644.390625 L 645.847656 644.714844 L 645.554688 645.042969 L 645.257812 645.367188 L 644.933594 645.660156 L 644.605469 645.957031 L 644.28125 646.234375 L 643.925781 646.5 L 643.566406 646.746094 L 643.195312 646.996094 L 642.824219 647.214844 L 642.433594 647.429688 L 642.03125 647.632812 L 641.628906 647.804688 L 641.210938 647.972656 L 640.789062 648.128906 L 640.371094 648.253906 L 639.9375 648.378906 L 639.488281 648.46875 L 639.035156 648.546875 L 638.585938 648.625 L 638.121094 648.671875 L 637.191406 648.703125 L 173.320312 648.703125 L 172.390625 648.671875 L 171.921875 648.625 L 171.023438 648.46875 L 170.574219 648.378906 L 170.140625 648.253906 L 169.71875 648.128906 L 169.300781 647.972656 L 168.882812 647.804688 L 168.480469 647.632812 L 168.074219 647.429688 L 167.6875 647.214844 L 167.316406 646.996094 L 166.941406 646.746094 L 166.585938 646.5 L 166.230469 646.234375 L 165.902344 645.957031 L 165.578125 645.660156 L 165.253906 645.367188 L 164.957031 645.042969 L 164.664062 644.714844 L 164.382812 644.390625 L 164.121094 644.03125 L 163.871094 643.675781 L 163.621094 643.304688 L 163.40625 642.929688 L 163.1875 642.542969 L 162.988281 642.140625 L 162.816406 641.738281 L 162.644531 641.316406 L 162.492188 640.898438 L 162.367188 640.480469 L 162.242188 640.046875 L 162.148438 639.59375 L 161.992188 638.695312 L 161.949219 638.230469 L 161.917969 637.300781 L 161.917969 173.320312 L 161.949219 172.390625 L 161.992188 171.921875 L 162.148438 171.023438 L 162.242188 170.574219 L 162.367188 170.140625 L 162.492188 169.71875 L 162.644531 169.300781 L 162.816406 168.882812 L 162.988281 168.480469 L 163.1875 168.074219 L 163.40625 167.6875 L 163.621094 167.316406 L 163.871094 166.941406 L 164.121094 166.585938 L 164.382812 166.230469 L 164.664062 165.902344 L 164.957031 165.578125 L 165.253906 165.253906 L 165.578125 164.957031 L 165.902344 164.664062 L 166.230469 164.382812 L 166.585938 164.121094 L 166.941406 163.871094 L 167.316406 163.621094 L 167.6875 163.40625 L 168.074219 163.1875 L 168.480469 162.988281 L 168.882812 162.816406 L 169.300781 162.644531 L 169.71875 162.492188 L 170.140625 162.367188 L 170.574219 162.242188 L 171.023438 162.148438 L 171.921875 161.992188 L 172.390625 161.949219 L 173.320312 161.917969 L 637.191406 161.917969 Z M 184.738281 625.894531 L 625.773438 625.894531 L 625.773438 184.738281 L 184.738281 184.738281 Z M 184.738281 625.894531 " clip-rule="nonzero"/></clipPath><linearGradient x1="250" gradientTransform="matrix(1.551511, 0, 0, 1.551511, 17.377448, 17.37746)" y1="7.350003" x2="250" gradientUnits="userSpaceOnUse" y2="492.649989" id="79f565e200"><stop stop-opacity="1" stop-color="rgb(17.298889%, 92.498779%, 100%)" offset="0"/><stop stop-opacity="1" stop-color="rgb(17.611694%, 92.3172%, 100%)" offset="0.00390625"/><stop stop-opacity="1" stop-color="rgb(17.926025%, 92.13562%, 100%)" offset="0.0078125"/><stop stop-opacity="1" stop-color="rgb(18.240356%, 91.952515%, 100%)" offset="0.0117188"/><stop stop-opacity="1" stop-color="rgb(18.554688%, 91.770935%, 100%)" offset="0.015625"/><stop stop-opacity="1" stop-color="rgb(18.867493%, 91.589355%, 100%)" offset="0.0195312"/><stop stop-opacity="1" stop-color="rgb(19.181824%, 91.407776%, 100%)" offset="0.0234375"/><stop stop-opacity="1" stop-color="rgb(19.494629%, 91.22467%, 100%)" offset="0.0273437"/><stop stop-opacity="1" stop-color="rgb(19.80896%, 91.043091%, 100%)" offset="0.03125"/><stop stop-opacity="1" stop-color="rgb(20.121765%, 90.859985%, 100%)" offset="0.0351562"/><stop stop-opacity="1" stop-color="rgb(20.436096%, 90.678406%, 100%)" offset="0.0390625"/><stop stop-opacity="1" stop-color="rgb(20.748901%, 90.496826%, 100%)" offset="0.0429688"/><stop stop-opacity="1" stop-color="rgb(21.063232%, 90.315247%, 100%)" offset="0.046875"/><stop stop-opacity="1" stop-color="rgb(21.376038%, 90.132141%, 100%)" offset="0.0507812"/><stop stop-opacity="1" stop-color="rgb(21.690369%, 89.950562%, 100%)" offset="0.0546875"/><stop stop-opacity="1" stop-color="rgb(22.003174%, 89.768982%, 100%)" offset="0.0585937"/><stop stop-opacity="1" stop-color="rgb(22.317505%, 89.587402%, 100%)" offset="0.0625"/><stop stop-opacity="1" stop-color="rgb(22.63031%, 89.404297%, 100%)" offset="0.0664062"/><stop stop-opacity="1" stop-color="rgb(22.944641%, 89.222717%, 100%)" offset="0.0703125"/><stop stop-opacity="1" stop-color="rgb(23.258972%, 89.039612%, 100%)" offset="0.0742188"/><stop stop-opacity="1" stop-color="rgb(23.573303%, 88.858032%, 100%)" offset="0.078125"/><stop stop-opacity="1" stop-color="rgb(23.886108%, 88.676453%, 100%)" offset="0.0820312"/><stop stop-opacity="1" stop-color="rgb(24.200439%, 88.494873%, 100%)" offset="0.0859375"/><stop stop-opacity="1" stop-color="rgb(24.513245%, 88.311768%, 100%)" offset="0.0898438"/><stop stop-opacity="1" stop-color="rgb(24.827576%, 88.130188%, 100%)" offset="0.09375"/><stop stop-opacity="1" stop-color="rgb(25.140381%, 87.948608%, 100%)" offset="0.0976562"/><stop stop-opacity="1" stop-color="rgb(25.454712%, 87.767029%, 100%)" offset="0.101562"/><stop stop-opacity="1" stop-color="rgb(25.767517%, 87.583923%, 100%)" offset="0.105469"/><stop stop-opacity="1" stop-color="rgb(26.081848%, 87.402344%, 100%)" offset="0.109375"/><stop stop-opacity="1" stop-color="rgb(26.394653%, 87.219238%, 100%)" offset="0.113281"/><stop stop-opacity="1" stop-color="rgb(26.708984%, 87.037659%, 100%)" offset="0.117187"/><stop stop-opacity="1" stop-color="rgb(27.02179%, 86.856079%, 100%)" offset="0.121094"/><stop stop-opacity="1" stop-color="rgb(27.336121%, 86.6745%, 100%)" offset="0.125"/><stop stop-opacity="1" stop-color="rgb(27.650452%, 86.491394%, 100%)" offset="0.128906"/><stop stop-opacity="1" stop-color="rgb(27.964783%, 86.309814%, 100%)" offset="0.132812"/><stop stop-opacity="1" stop-color="rgb(28.277588%, 86.128235%, 100%)" offset="0.136719"/><stop stop-opacity="1" stop-color="rgb(28.591919%, 85.946655%, 100%)" offset="0.140625"/><stop stop-opacity="1" stop-color="rgb(28.904724%, 85.76355%, 100%)" offset="0.144531"/><stop stop-opacity="1" stop-color="rgb(29.219055%, 85.58197%, 100%)" offset="0.148437"/><stop stop-opacity="1" stop-color="rgb(29.53186%, 85.398865%, 100%)" offset="0.152344"/><stop stop-opacity="1" stop-color="rgb(29.846191%, 85.217285%, 100%)" offset="0.15625"/><stop stop-opacity="1" stop-color="rgb(30.158997%, 85.035706%, 100%)" offset="0.160156"/><stop stop-opacity="1" stop-color="rgb(30.473328%, 84.854126%, 100%)" offset="0.164062"/><stop stop-opacity="1" stop-color="rgb(30.786133%, 84.671021%, 100%)" offset="0.167969"/><stop stop-opacity="1" stop-color="rgb(31.100464%, 84.489441%, 100%)" offset="0.171875"/><stop stop-opacity="1" stop-color="rgb(31.413269%, 84.307861%, 100%)" offset="0.175781"/><stop stop-opacity="1" stop-color="rgb(31.7276%, 84.126282%, 100%)" offset="0.179687"/><stop stop-opacity="1" stop-color="rgb(32.040405%, 83.943176%, 100%)" offset="0.183594"/><stop stop-opacity="1" stop-color="rgb(32.354736%, 83.761597%, 100%)" offset="0.1875"/><stop stop-opacity="1" stop-color="rgb(32.669067%, 83.578491%, 100%)" offset="0.191406"/><stop stop-opacity="1" stop-color="rgb(32.983398%, 83.396912%, 100%)" offset="0.195312"/><stop stop-opacity="1" stop-color="rgb(33.296204%, 83.215332%, 100%)" offset="0.199219"/><stop stop-opacity="1" stop-color="rgb(33.610535%, 83.033752%, 100%)" offset="0.203125"/><stop stop-opacity="1" stop-color="rgb(33.92334%, 82.850647%, 100%)" offset="0.207031"/><stop stop-opacity="1" stop-color="rgb(34.237671%, 82.669067%, 100%)" offset="0.210938"/><stop stop-opacity="1" stop-color="rgb(34.550476%, 82.487488%, 100%)" offset="0.214844"/><stop stop-opacity="1" stop-color="rgb(34.864807%, 82.305908%, 100%)" offset="0.21875"/><stop stop-opacity="1" stop-color="rgb(35.177612%, 82.122803%, 100%)" offset="0.222656"/><stop stop-opacity="1" stop-color="rgb(35.491943%, 81.941223%, 100%)" offset="0.226562"/><stop stop-opacity="1" stop-color="rgb(35.804749%, 81.759644%, 100%)" offset="0.230469"/><stop stop-opacity="1" stop-color="rgb(36.11908%, 81.578064%, 100%)" offset="0.234375"/><stop stop-opacity="1" stop-color="rgb(36.431885%, 81.394958%, 100%)" offset="0.238281"/><stop stop-opacity="1" stop-color="rgb(36.746216%, 81.213379%, 100%)" offset="0.242188"/><stop stop-opacity="1" stop-color="rgb(37.060547%, 81.030273%, 100%)" offset="0.246094"/><stop stop-opacity="1" stop-color="rgb(37.374878%, 80.848694%, 100%)" offset="0.25"/><stop stop-opacity="1" stop-color="rgb(37.687683%, 80.667114%, 100%)" offset="0.253906"/><stop stop-opacity="1" stop-color="rgb(38.002014%, 80.485535%, 100%)" offset="0.257813"/><stop stop-opacity="1" stop-color="rgb(38.314819%, 80.302429%, 100%)" offset="0.261719"/><stop stop-opacity="1" stop-color="rgb(38.62915%, 80.12085%, 100%)" offset="0.265625"/><stop stop-opacity="1" stop-color="rgb(38.941956%, 79.93927%, 100%)" offset="0.269531"/><stop stop-opacity="1" stop-color="rgb(39.256287%, 79.75769%, 100%)" offset="0.273438"/><stop stop-opacity="1" stop-color="rgb(39.569092%, 79.574585%, 100%)" offset="0.277344"/><stop stop-opacity="1" stop-color="rgb(39.883423%, 79.393005%, 100%)" offset="0.28125"/><stop stop-opacity="1" stop-color="rgb(40.196228%, 79.2099%, 100%)" offset="0.285156"/><stop stop-opacity="1" stop-color="rgb(40.510559%, 79.02832%, 100%)" offset="0.289063"/><stop stop-opacity="1" stop-color="rgb(40.823364%, 78.846741%, 100%)" offset="0.292969"/><stop stop-opacity="1" stop-color="rgb(41.137695%, 78.665161%, 100%)" offset="0.296875"/><stop stop-opacity="1" stop-color="rgb(41.452026%, 78.482056%, 100%)" offset="0.300781"/><stop stop-opacity="1" stop-color="rgb(41.766357%, 78.300476%, 100%)" offset="0.304688"/><stop stop-opacity="1" stop-color="rgb(42.079163%, 78.118896%, 100%)" offset="0.308594"/><stop stop-opacity="1" stop-color="rgb(42.393494%, 77.937317%, 100%)" offset="0.3125"/><stop stop-opacity="1" stop-color="rgb(42.706299%, 77.754211%, 100%)" offset="0.316406"/><stop stop-opacity="1" stop-color="rgb(43.02063%, 77.572632%, 100%)" offset="0.320313"/><stop stop-opacity="1" stop-color="rgb(43.333435%, 77.389526%, 100%)" offset="0.324219"/><stop stop-opacity="1" stop-color="rgb(43.647766%, 77.207947%, 100%)" offset="0.328125"/><stop stop-opacity="1" stop-color="rgb(43.960571%, 77.026367%, 100%)" offset="0.332031"/><stop stop-opacity="1" stop-color="rgb(44.274902%, 76.844788%, 100%)" offset="0.335938"/><stop stop-opacity="1" stop-color="rgb(44.587708%, 76.661682%, 100%)" offset="0.339844"/><stop stop-opacity="1" stop-color="rgb(44.902039%, 76.480103%, 100%)" offset="0.34375"/><stop stop-opacity="1" stop-color="rgb(45.214844%, 76.298523%, 100%)" offset="0.347656"/><stop stop-opacity="1" stop-color="rgb(45.529175%, 76.116943%, 100%)" offset="0.351563"/><stop stop-opacity="1" stop-color="rgb(45.84198%, 75.933838%, 100%)" offset="0.355469"/><stop stop-opacity="1" stop-color="rgb(46.156311%, 75.752258%, 100%)" offset="0.359375"/><stop stop-opacity="1" stop-color="rgb(46.470642%, 75.569153%, 100%)" offset="0.363281"/><stop stop-opacity="1" stop-color="rgb(46.784973%, 75.387573%, 100%)" offset="0.367188"/><stop stop-opacity="1" stop-color="rgb(47.097778%, 75.205994%, 100%)" offset="0.371094"/><stop stop-opacity="1" stop-color="rgb(47.412109%, 75.024414%, 100%)" offset="0.375"/><stop stop-opacity="1" stop-color="rgb(47.724915%, 74.841309%, 100%)" offset="0.378906"/><stop stop-opacity="1" stop-color="rgb(48.039246%, 74.659729%, 100%)" offset="0.382812"/><stop stop-opacity="1" stop-color="rgb(48.352051%, 74.478149%, 100%)" offset="0.386719"/><stop stop-opacity="1" stop-color="rgb(48.666382%, 74.29657%, 100%)" offset="0.390625"/><stop stop-opacity="1" stop-color="rgb(48.979187%, 74.113464%, 100%)" offset="0.394531"/><stop stop-opacity="1" stop-color="rgb(49.293518%, 73.931885%, 100%)" offset="0.398437"/><stop stop-opacity="1" stop-color="rgb(49.606323%, 73.750305%, 100%)" offset="0.402344"/><stop stop-opacity="1" stop-color="rgb(49.920654%, 73.568726%, 100%)" offset="0.40625"/><stop stop-opacity="1" stop-color="rgb(50.233459%, 73.38562%, 100%)" offset="0.410156"/><stop stop-opacity="1" stop-color="rgb(50.547791%, 73.204041%, 100%)" offset="0.414062"/><stop stop-opacity="1" stop-color="rgb(50.862122%, 73.020935%, 100%)" offset="0.417969"/><stop stop-opacity="1" stop-color="rgb(51.176453%, 72.839355%, 100%)" offset="0.421875"/><stop stop-opacity="1" stop-color="rgb(51.489258%, 72.657776%, 100%)" offset="0.425781"/><stop stop-opacity="1" stop-color="rgb(51.803589%, 72.476196%, 100%)" offset="0.429688"/><stop stop-opacity="1" stop-color="rgb(52.116394%, 72.293091%, 100%)" offset="0.433594"/><stop stop-opacity="1" stop-color="rgb(52.430725%, 72.111511%, 100%)" offset="0.4375"/><stop stop-opacity="1" stop-color="rgb(52.74353%, 71.929932%, 100%)" offset="0.441406"/><stop stop-opacity="1" stop-color="rgb(53.057861%, 71.748352%, 100%)" offset="0.445312"/><stop stop-opacity="1" stop-color="rgb(53.370667%, 71.565247%, 100%)" offset="0.449219"/><stop stop-opacity="1" stop-color="rgb(53.684998%, 71.383667%, 100%)" offset="0.453125"/><stop stop-opacity="1" stop-color="rgb(53.997803%, 71.200562%, 100%)" offset="0.457031"/><stop stop-opacity="1" stop-color="rgb(54.312134%, 71.018982%, 100%)" offset="0.460938"/><stop stop-opacity="1" stop-color="rgb(54.624939%, 70.837402%, 100%)" offset="0.464844"/><stop stop-opacity="1" stop-color="rgb(54.93927%, 70.655823%, 100%)" offset="0.46875"/><stop stop-opacity="1" stop-color="rgb(55.253601%, 70.472717%, 100%)" offset="0.472656"/><stop stop-opacity="1" stop-color="rgb(55.567932%, 70.291138%, 100%)" offset="0.476562"/><stop stop-opacity="1" stop-color="rgb(55.880737%, 70.109558%, 100%)" offset="0.480469"/><stop stop-opacity="1" stop-color="rgb(56.195068%, 69.927979%, 100%)" offset="0.484375"/><stop stop-opacity="1" stop-color="rgb(56.507874%, 69.744873%, 100%)" offset="0.488281"/><stop stop-opacity="1" stop-color="rgb(56.822205%, 69.563293%, 100%)" offset="0.492188"/><stop stop-opacity="1" stop-color="rgb(57.13501%, 69.380188%, 100%)" offset="0.496094"/><stop stop-opacity="1" stop-color="rgb(57.449341%, 69.198608%, 100%)" offset="0.5"/><stop stop-opacity="1" stop-color="rgb(57.762146%, 69.017029%, 100%)" offset="0.503906"/><stop stop-opacity="1" stop-color="rgb(58.076477%, 68.835449%, 100%)" offset="0.507812"/><stop stop-opacity="1" stop-color="rgb(58.389282%, 68.652344%, 100%)" offset="0.511719"/><stop stop-opacity="1" stop-color="rgb(58.703613%, 68.470764%, 100%)" offset="0.515625"/><stop stop-opacity="1" stop-color="rgb(59.016418%, 68.289185%, 100%)" offset="0.519531"/><stop stop-opacity="1" stop-color="rgb(59.33075%, 68.107605%, 100%)" offset="0.523438"/><stop stop-opacity="1" stop-color="rgb(59.643555%, 67.9245%, 100%)" offset="0.527344"/><stop stop-opacity="1" stop-color="rgb(59.957886%, 67.74292%, 100%)" offset="0.53125"/><stop stop-opacity="1" stop-color="rgb(60.272217%, 67.559814%, 100%)" offset="0.535156"/><stop stop-opacity="1" stop-color="rgb(60.586548%, 67.378235%, 100%)" offset="0.539062"/><stop stop-opacity="1" stop-color="rgb(60.899353%, 67.196655%, 100%)" offset="0.542969"/><stop stop-opacity="1" stop-color="rgb(61.213684%, 67.015076%, 100%)" offset="0.546875"/><stop stop-opacity="1" stop-color="rgb(61.526489%, 66.83197%, 100%)" offset="0.550781"/><stop stop-opacity="1" stop-color="rgb(61.84082%, 66.650391%, 100%)" offset="0.554688"/><stop stop-opacity="1" stop-color="rgb(62.153625%, 66.468811%, 100%)" offset="0.558594"/><stop stop-opacity="1" stop-color="rgb(62.467957%, 66.287231%, 100%)" offset="0.5625"/><stop stop-opacity="1" stop-color="rgb(62.780762%, 66.104126%, 100%)" offset="0.566406"/><stop stop-opacity="1" stop-color="rgb(63.095093%, 65.922546%, 100%)" offset="0.570312"/><stop stop-opacity="1" stop-color="rgb(63.407898%, 65.739441%, 100%)" offset="0.574219"/><stop stop-opacity="1" stop-color="rgb(63.722229%, 65.557861%, 100%)" offset="0.578125"/><stop stop-opacity="1" stop-color="rgb(64.035034%, 65.376282%, 100%)" offset="0.582031"/><stop stop-opacity="1" stop-color="rgb(64.349365%, 65.194702%, 100%)" offset="0.585938"/><stop stop-opacity="1" stop-color="rgb(64.663696%, 65.011597%, 100%)" offset="0.589844"/><stop stop-opacity="1" stop-color="rgb(64.978027%, 64.830017%, 100%)" offset="0.59375"/><stop stop-opacity="1" stop-color="rgb(65.290833%, 64.648438%, 100%)" offset="0.597656"/><stop stop-opacity="1" stop-color="rgb(65.605164%, 64.466858%, 100%)" offset="0.601562"/><stop stop-opacity="1" stop-color="rgb(65.917969%, 64.283752%, 100%)" offset="0.605469"/><stop stop-opacity="1" stop-color="rgb(66.2323%, 64.102173%, 100%)" offset="0.609375"/><stop stop-opacity="1" stop-color="rgb(66.545105%, 63.920593%, 100%)" offset="0.613281"/><stop stop-opacity="1" stop-color="rgb(66.859436%, 63.739014%, 100%)" offset="0.617188"/><stop stop-opacity="1" stop-color="rgb(67.172241%, 63.555908%, 100%)" offset="0.621094"/><stop stop-opacity="1" stop-color="rgb(67.486572%, 63.374329%, 100%)" offset="0.625"/><stop stop-opacity="1" stop-color="rgb(67.799377%, 63.191223%, 100%)" offset="0.628906"/><stop stop-opacity="1" stop-color="rgb(68.113708%, 63.009644%, 100%)" offset="0.632812"/><stop stop-opacity="1" stop-color="rgb(68.426514%, 62.828064%, 100%)" offset="0.636719"/><stop stop-opacity="1" stop-color="rgb(68.740845%, 62.646484%, 100%)" offset="0.640625"/><stop stop-opacity="1" stop-color="rgb(69.055176%, 62.463379%, 100%)" offset="0.644531"/><stop stop-opacity="1" stop-color="rgb(69.369507%, 62.281799%, 100%)" offset="0.648438"/><stop stop-opacity="1" stop-color="rgb(69.682312%, 62.10022%, 100%)" offset="0.652344"/><stop stop-opacity="1" stop-color="rgb(69.996643%, 61.91864%, 100%)" offset="0.65625"/><stop stop-opacity="1" stop-color="rgb(70.309448%, 61.735535%, 100%)" offset="0.660156"/><stop stop-opacity="1" stop-color="rgb(70.623779%, 61.553955%, 100%)" offset="0.664062"/><stop stop-opacity="1" stop-color="rgb(70.936584%, 61.37085%, 100%)" offset="0.667969"/><stop stop-opacity="1" stop-color="rgb(71.250916%, 61.18927%, 100%)" offset="0.671875"/><stop stop-opacity="1" stop-color="rgb(71.563721%, 61.00769%, 100%)" offset="0.675781"/><stop stop-opacity="1" stop-color="rgb(71.878052%, 60.826111%, 100%)" offset="0.679688"/><stop stop-opacity="1" stop-color="rgb(72.190857%, 60.643005%, 100%)" offset="0.683594"/><stop stop-opacity="1" stop-color="rgb(72.505188%, 60.461426%, 100%)" offset="0.6875"/><stop stop-opacity="1" stop-color="rgb(72.817993%, 60.279846%, 100%)" offset="0.691406"/><stop stop-opacity="1" stop-color="rgb(73.132324%, 60.098267%, 100%)" offset="0.695312"/><stop stop-opacity="1" stop-color="rgb(73.445129%, 59.915161%, 100%)" offset="0.699219"/><stop stop-opacity="1" stop-color="rgb(73.75946%, 59.733582%, 100%)" offset="0.703125"/><stop stop-opacity="1" stop-color="rgb(74.073792%, 59.550476%, 100%)" offset="0.707031"/><stop stop-opacity="1" stop-color="rgb(74.388123%, 59.368896%, 100%)" offset="0.710938"/><stop stop-opacity="1" stop-color="rgb(74.700928%, 59.187317%, 100%)" offset="0.714844"/><stop stop-opacity="1" stop-color="rgb(75.015259%, 59.005737%, 100%)" offset="0.71875"/><stop stop-opacity="1" stop-color="rgb(75.328064%, 58.822632%, 100%)" offset="0.722656"/><stop stop-opacity="1" stop-color="rgb(75.642395%, 58.641052%, 100%)" offset="0.726562"/><stop stop-opacity="1" stop-color="rgb(75.9552%, 58.459473%, 100%)" offset="0.730469"/><stop stop-opacity="1" stop-color="rgb(76.269531%, 58.277893%, 100%)" offset="0.734375"/><stop stop-opacity="1" stop-color="rgb(76.582336%, 58.094788%, 100%)" offset="0.738281"/><stop stop-opacity="1" stop-color="rgb(76.896667%, 57.913208%, 100%)" offset="0.742188"/><stop stop-opacity="1" stop-color="rgb(77.209473%, 57.730103%, 100%)" offset="0.746094"/><stop stop-opacity="1" stop-color="rgb(77.523804%, 57.548523%, 100%)" offset="0.75"/><stop stop-opacity="1" stop-color="rgb(77.836609%, 57.366943%, 100%)" offset="0.753906"/><stop stop-opacity="1" stop-color="rgb(78.15094%, 57.185364%, 100%)" offset="0.757812"/><stop stop-opacity="1" stop-color="rgb(78.465271%, 57.002258%, 100%)" offset="0.761719"/><stop stop-opacity="1" stop-color="rgb(78.779602%, 56.820679%, 100%)" offset="0.765625"/><stop stop-opacity="1" stop-color="rgb(79.092407%, 56.639099%, 100%)" offset="0.769531"/><stop stop-opacity="1" stop-color="rgb(79.406738%, 56.45752%, 100%)" offset="0.773438"/><stop stop-opacity="1" stop-color="rgb(79.719543%, 56.274414%, 100%)" offset="0.777344"/><stop stop-opacity="1" stop-color="rgb(80.033875%, 56.092834%, 100%)" offset="0.78125"/><stop stop-opacity="1" stop-color="rgb(80.34668%, 55.911255%, 100%)" offset="0.785156"/><stop stop-opacity="1" stop-color="rgb(80.661011%, 55.729675%, 100%)" offset="0.789062"/><stop stop-opacity="1" stop-color="rgb(80.973816%, 55.54657%, 100%)" offset="0.792969"/><stop stop-opacity="1" stop-color="rgb(81.288147%, 55.36499%, 100%)" offset="0.796875"/><stop stop-opacity="1" stop-color="rgb(81.600952%, 55.181885%, 100%)" offset="0.800781"/><stop stop-opacity="1" stop-color="rgb(81.915283%, 55.000305%, 100%)" offset="0.804688"/><stop stop-opacity="1" stop-color="rgb(82.228088%, 54.818726%, 100%)" offset="0.808594"/><stop stop-opacity="1" stop-color="rgb(82.542419%, 54.637146%, 100%)" offset="0.8125"/><stop stop-opacity="1" stop-color="rgb(82.85675%, 54.454041%, 100%)" offset="0.816406"/><stop stop-opacity="1" stop-color="rgb(83.171082%, 54.272461%, 100%)" offset="0.820312"/><stop stop-opacity="1" stop-color="rgb(83.483887%, 54.090881%, 100%)" offset="0.824219"/><stop stop-opacity="1" stop-color="rgb(83.798218%, 53.909302%, 100%)" offset="0.828125"/><stop stop-opacity="1" stop-color="rgb(84.111023%, 53.726196%, 100%)" offset="0.832031"/><stop stop-opacity="1" stop-color="rgb(84.425354%, 53.544617%, 100%)" offset="0.835938"/><stop stop-opacity="1" stop-color="rgb(84.738159%, 53.361511%, 100%)" offset="0.839844"/><stop stop-opacity="1" stop-color="rgb(85.05249%, 53.179932%, 100%)" offset="0.84375"/><stop stop-opacity="1" stop-color="rgb(85.365295%, 52.998352%, 100%)" offset="0.847656"/><stop stop-opacity="1" stop-color="rgb(85.679626%, 52.816772%, 100%)" offset="0.851563"/><stop stop-opacity="1" stop-color="rgb(85.992432%, 52.633667%, 100%)" offset="0.855469"/><stop stop-opacity="1" stop-color="rgb(86.306763%, 52.452087%, 100%)" offset="0.859375"/><stop stop-opacity="1" stop-color="rgb(86.619568%, 52.270508%, 100%)" offset="0.863281"/><stop stop-opacity="1" stop-color="rgb(86.933899%, 52.088928%, 100%)" offset="0.867188"/><stop stop-opacity="1" stop-color="rgb(87.246704%, 51.905823%, 100%)" offset="0.871094"/><stop stop-opacity="1" stop-color="rgb(87.561035%, 51.724243%, 100%)" offset="0.875"/><stop stop-opacity="1" stop-color="rgb(87.875366%, 51.541138%, 100%)" offset="0.878906"/><stop stop-opacity="1" stop-color="rgb(88.189697%, 51.359558%, 100%)" offset="0.882813"/><stop stop-opacity="1" stop-color="rgb(88.502502%, 51.177979%, 100%)" offset="0.886719"/><stop stop-opacity="1" stop-color="rgb(88.816833%, 50.996399%, 100%)" offset="0.890625"/><stop stop-opacity="1" stop-color="rgb(89.129639%, 50.813293%, 100%)" offset="0.894531"/><stop stop-opacity="1" stop-color="rgb(89.44397%, 50.631714%, 100%)" offset="0.898438"/><stop stop-opacity="1" stop-color="rgb(89.756775%, 50.450134%, 100%)" offset="0.902344"/><stop stop-opacity="1" stop-color="rgb(90.071106%, 50.268555%, 100%)" offset="0.90625"/><stop stop-opacity="1" stop-color="rgb(90.383911%, 50.085449%, 100%)" offset="0.910156"/><stop stop-opacity="1" stop-color="rgb(90.698242%, 49.90387%, 100%)" offset="0.914063"/><stop stop-opacity="1" stop-color="rgb(91.011047%, 49.720764%, 100%)" offset="0.917969"/><stop stop-opacity="1" stop-color="rgb(91.325378%, 49.539185%, 100%)" offset="0.921875"/><stop stop-opacity="1" stop-color="rgb(91.638184%, 49.357605%, 100%)" offset="0.925781"/><stop stop-opacity="1" stop-color="rgb(91.952515%, 49.176025%, 100%)" offset="0.929688"/><stop stop-opacity="1" stop-color="rgb(92.266846%, 48.99292%, 100%)" offset="0.933594"/><stop stop-opacity="1" stop-color="rgb(92.581177%, 48.81134%, 100%)" offset="0.9375"/><stop stop-opacity="1" stop-color="rgb(92.893982%, 48.629761%, 100%)" offset="0.941406"/><stop stop-opacity="1" stop-color="rgb(93.208313%, 48.448181%, 100%)" offset="0.945313"/><stop stop-opacity="1" stop-color="rgb(93.521118%, 48.265076%, 100%)" offset="0.949219"/><stop stop-opacity="1" stop-color="rgb(93.835449%, 48.083496%, 100%)" offset="0.953125"/><stop stop-opacity="1" stop-color="rgb(94.148254%, 47.900391%, 100%)" offset="0.957031"/><stop stop-opacity="1" stop-color="rgb(94.462585%, 47.718811%, 100%)" offset="0.960938"/><stop stop-opacity="1" stop-color="rgb(94.775391%, 47.537231%, 100%)" offset="0.964844"/><stop stop-opacity="1" stop-color="rgb(95.089722%, 47.355652%, 100%)" offset="0.96875"/><stop stop-opacity="1" stop-color="rgb(95.402527%, 47.172546%, 100%)" offset="0.972656"/><stop stop-opacity="1" stop-color="rgb(95.716858%, 46.990967%, 100%)" offset="0.976563"/><stop stop-opacity="1" stop-color="rgb(96.029663%, 46.809387%, 100%)" offset="0.980469"/><stop stop-opacity="1" stop-color="rgb(96.343994%, 46.627808%, 100%)" offset="0.984375"/><stop stop-opacity="1" stop-color="rgb(96.656799%, 46.444702%, 100%)" offset="0.988281"/><stop stop-opacity="1" stop-color="rgb(96.97113%, 46.263123%, 100%)" offset="0.992188"/><stop stop-opacity="1" stop-color="rgb(97.285461%, 46.081543%, 100%)" offset="0.996094"/><stop stop-opacity="1" stop-color="rgb(97.599792%, 45.899963%, 100%)" offset="1"/></linearGradient><clipPath id="e8a8f87829"><path d="M 219.207031 219.207031 L 590.457031 219.207031 L 590.457031 590.457031 L 219.207031 590.457031 Z M 219.207031 219.207031 " clip-rule="nonzero"/></clipPath></defs><g clip-path="url(#4aee4dd4e2)"><g clip-path="url(#f0b8b858b5)"><path fill="url(#79f565e200)" d="M 28.78125 28.78125 L 28.78125 781.730469 L 781.730469 781.730469 L 781.730469 28.78125 Z M 28.78125 28.78125 " fill-rule="nonzero"/></g></g><g clip-path="url(#e8a8f87829)"><path fill="#ffffff" d="M 589.0625 379.601562 L 553.226562 369.691406 C 549.425781 353.726562 543.140625 338.722656 534.75 325.140625 L 553.097656 292.800781 C 542.835938 279.269531 530.746094 267.179688 517.1875 256.890625 L 484.851562 275.238281 C 473.21875 268.066406 460.675781 261.605469 440.296875 256.765625 L 430.390625 220.929688 C 422.078125 219.789062 413.613281 219.207031 404.996094 219.207031 C 396.378906 219.207031 387.914062 219.816406 379.601562 220.929688 L 369.691406 256.765625 C 353.726562 260.566406 338.722656 266.851562 325.140625 275.238281 L 292.800781 256.890625 C 279.269531 267.15625 267.179688 279.242188 256.890625 292.800781 L 275.238281 325.140625 C 266.851562 338.722656 260.566406 353.726562 256.765625 369.691406 L 220.929688 379.601562 C 219.789062 387.914062 219.207031 396.378906 219.207031 404.996094 C 219.207031 413.613281 219.816406 422.078125 220.929688 430.390625 L 256.765625 440.296875 C 260.566406 456.265625 266.851562 471.265625 275.238281 484.851562 L 256.890625 517.1875 C 257.171875 517.542969 257.449219 517.898438 257.726562 518.277344 C 267.8125 531.378906 279.625 543.089844 292.800781 553.101562 C 409.609375 483.230469 382.492188 379.980469 382.492188 379.980469 C 382.492188 379.628906 382.441406 379.296875 382.390625 378.96875 C 382.058594 377.117188 380.894531 375.496094 379.144531 374.660156 C 365.054688 367.84375 352.941406 356.160156 352.941406 340.648438 C 352.941406 322.378906 366.523438 298.582031 376.003906 288.976562 L 376.003906 326.304688 C 376.003906 330.410156 378.511719 334.085938 382.339844 335.582031 L 403.070312 343.613281 C 405.375 344.5 407.933594 344.5 410.265625 343.613281 L 430.996094 335.582031 C 434.824219 334.085938 437.332031 330.410156 437.332031 326.304688 L 437.332031 288.976562 C 446.835938 298.582031 460.394531 322.378906 460.394531 340.648438 C 460.394531 362.417969 436.496094 376.660156 416.730469 380.488281 C 416.730469 380.488281 424.027344 381.097656 430.59375 379.347656 C 430.59375 379.347656 446.609375 500.792969 373.164062 565.871094 L 379.578125 589.0625 C 387.890625 590.203125 396.355469 590.785156 404.96875 590.785156 C 413.585938 590.785156 422.050781 590.175781 430.363281 589.0625 L 440.273438 553.226562 C 443.769531 552.390625 447.214844 551.453125 450.613281 550.386719 C 462.753906 546.585938 474.230469 541.316406 484.824219 534.777344 L 517.164062 553.125 C 530.695312 542.859375 542.785156 530.773438 553.074219 517.214844 L 534.726562 484.875 C 543.113281 471.292969 549.398438 456.289062 553.199219 440.324219 L 589.035156 430.414062 C 590.175781 422.101562 590.757812 413.636719 590.757812 405.019531 C 590.785156 396.378906 590.203125 387.914062 589.0625 379.601562 Z M 589.0625 379.601562 " fill-opacity="1" fill-rule="nonzero"/></g></svg>